<?xml version="1.0" encoding="UTF-8"?>
<svg xmlns="http://www.w3.org/2000/svg" xmlns:xlink="http://www.w3.org/1999/xlink" width="15pt" height="15pt" viewBox="0 0 20 20" version="1.1">
<g id="surface1">
<path style=" stroke:none;fill-rule:nonzero;fill:rgb(100%,80%,30%);fill-opacity:1;" d="M 18.640625 4.976562 C 17.746094 3.445312 16.535156 2.234375 15.003906 1.339844 C 13.472656 0.445312 11.800781 0 9.988281 0 C 8.175781 0 6.503906 0.445312 4.976562 1.339844 C 3.445312 2.234375 2.234375 3.445312 1.339844 4.976562 C 0.445312 6.503906 0 8.175781 0 9.988281 C 0 11.800781 0.445312 13.472656 1.339844 15.003906 C 2.234375 16.535156 3.445312 17.746094 4.976562 18.640625 C 6.503906 19.53125 8.175781 19.980469 9.988281 19.980469 C 11.800781 19.980469 13.472656 19.53125 15.003906 18.640625 C 16.535156 17.746094 17.746094 16.535156 18.640625 15.003906 C 19.53125 13.472656 19.980469 11.800781 19.980469 9.988281 C 19.980469 8.175781 19.53125 6.503906 18.640625 4.976562 Z M 16.117188 13.539062 C 15.484375 14.625 14.625 15.484375 13.539062 16.117188 C 12.457031 16.75 11.273438 17.066406 9.988281 17.066406 C 8.707031 17.066406 7.523438 16.75 6.4375 16.117188 C 5.355469 15.484375 4.496094 14.625 3.863281 13.539062 C 3.230469 12.457031 2.914062 11.273438 2.914062 9.988281 C 2.914062 8.707031 3.230469 7.523438 3.863281 6.4375 C 4.496094 5.355469 5.355469 4.496094 6.4375 3.863281 C 7.523438 3.230469 8.707031 2.914062 9.988281 2.914062 C 11.273438 2.914062 12.457031 3.230469 13.539062 3.863281 C 14.625 4.496094 15.484375 5.355469 16.117188 6.4375 C 16.75 7.523438 17.066406 8.707031 17.066406 9.988281 C 17.066406 11.273438 16.75 12.457031 16.117188 13.539062 Z M 16.117188 13.539062 "/>
<path style=" stroke:none;fill-rule:nonzero;fill:rgb(100%,80%,30%);fill-opacity:1;" d="M 14.152344 9.988281 L 11.65625 9.988281 L 11.65625 5.410156 C 11.65625 5.289062 11.617188 5.191406 11.539062 5.113281 C 11.460938 5.035156 11.359375 4.996094 11.238281 4.996094 L 8.742188 4.996094 C 8.621094 4.996094 8.519531 5.035156 8.441406 5.113281 C 8.363281 5.191406 8.324219 5.289062 8.324219 5.410156 L 8.324219 9.988281 L 5.828125 9.988281 C 5.636719 9.988281 5.507812 10.074219 5.4375 10.25 C 5.367188 10.414062 5.398438 10.566406 5.527344 10.703125 L 9.691406 14.867188 C 9.785156 14.945312 9.886719 14.984375 9.988281 14.984375 C 10.09375 14.984375 10.195312 14.945312 10.289062 14.867188 L 14.4375 10.71875 C 14.523438 10.613281 14.566406 10.507812 14.566406 10.40625 C 14.566406 10.285156 14.527344 10.183594 14.449219 10.105469 C 14.375 10.027344 14.273438 9.988281 14.152344 9.988281 Z M 14.152344 9.988281 "/>
</g>
</svg>
