<?xml version="1.0" encoding="UTF-8"?>
<svg xmlns="http://www.w3.org/2000/svg" xmlns:xlink="http://www.w3.org/1999/xlink" width="15pt" height="15pt" viewBox="0 0 15 15" version="1.1">
<g id="surface1">
<path style=" stroke:none;fill-rule:nonzero;fill:rgb(0%,72.941176%,8.627451%);fill-opacity:1;" d="M 15 7.5 C 15 11.640625 11.640625 15 7.5 15 C 3.359375 15 0 11.640625 0 7.5 C 0 3.359375 3.359375 0 7.5 0 C 11.640625 0 15 3.359375 15 7.5 Z M 15 7.5 "/>
<path style=" stroke:none;fill-rule:nonzero;fill:rgb(100%,100%,100%);fill-opacity:1;" d="M 11.378906 7.5 L 5.691406 11.378906 L 5.691406 3.621094 Z M 11.378906 7.5 "/>
<path style=" stroke:none;fill-rule:nonzero;fill:rgb(100%,100%,100%);fill-opacity:1;" d="M 5.691406 11.636719 C 5.648438 11.636719 5.605469 11.628906 5.570312 11.609375 C 5.484375 11.5625 5.429688 11.476562 5.429688 11.378906 L 5.429688 3.621094 C 5.429688 3.523438 5.484375 3.4375 5.570312 3.390625 C 5.652344 3.347656 5.757812 3.351562 5.835938 3.40625 L 11.523438 7.285156 C 11.59375 7.335938 11.636719 7.414062 11.636719 7.5 C 11.636719 7.585938 11.59375 7.664062 11.523438 7.714844 L 5.835938 11.59375 C 5.792969 11.621094 5.742188 11.636719 5.691406 11.636719 Z M 5.949219 4.109375 L 5.949219 10.890625 L 10.921875 7.5 Z M 5.949219 4.109375 "/>
</g>
</svg>
